<svg xmlns="http://www.w3.org/2000/svg" viewBox="0 0 900 520" role="img" aria-labelledby="title desc">
  <title id="title">JAZEKKER</title>
  <desc id="desc">Compass logo with JAZEKKER and subtitle portal of calm orientation.</desc>
  <defs>
    <radialGradient id="bg" cx="50%" cy="36%" r="62%">
      <stop offset="0%" stop-color="#151515"/>
      <stop offset="72%" stop-color="#050505"/>
      <stop offset="100%" stop-color="#000000"/>
    </radialGradient>
    <linearGradient id="steel" x1="15%" y1="0%" x2="85%" y2="100%">
      <stop offset="0%" stop-color="#ffffff"/>
      <stop offset="22%" stop-color="#8f8f8f"/>
      <stop offset="48%" stop-color="#f2f2f2"/>
      <stop offset="72%" stop-color="#6f6f6f"/>
      <stop offset="100%" stop-color="#d8d8d8"/>
    </linearGradient>
    <linearGradient id="gold" x1="0%" y1="0%" x2="100%" y2="100%">
      <stop offset="0%" stop-color="#ffe18c"/>
      <stop offset="55%" stop-color="#b8822c"/>
      <stop offset="100%" stop-color="#f5c765"/>
    </linearGradient>
    <filter id="softShadow" x="-20%" y="-20%" width="140%" height="140%">
      <feDropShadow dx="0" dy="10" stdDeviation="12" flood-color="#000000" flood-opacity=".55"/>
    </filter>
  </defs>
  <rect width="900" height="520" rx="18" fill="url(#bg)"/>
  <g transform="translate(450 174)" filter="url(#softShadow)">
    <circle r="118" fill="#101010" stroke="url(#steel)" stroke-width="12"/>
    <circle r="92" fill="none" stroke="#d8d8d8" stroke-width="2" opacity=".75"/>
    <circle r="76" fill="none" stroke="#a7a7a7" stroke-width="1" opacity=".55"/>
    <g stroke="#e7e7e7" stroke-width="2" opacity=".85">
      <line x1="0" y1="-102" x2="0" y2="-88"/>
      <line x1="0" y1="102" x2="0" y2="88"/>
      <line x1="-102" y1="0" x2="-88" y2="0"/>
      <line x1="102" y1="0" x2="88" y2="0"/>
      <line x1="72" y1="-72" x2="62" y2="-62"/>
      <line x1="-72" y1="72" x2="-62" y2="62"/>
      <line x1="-72" y1="-72" x2="-62" y2="-62"/>
      <line x1="72" y1="72" x2="62" y2="62"/>
    </g>
    <text x="0" y="-72" text-anchor="middle" font-family="Georgia, serif" font-size="32" fill="#f4f4f4">N</text>
    <text x="73" y="10" text-anchor="middle" font-family="Georgia, serif" font-size="32" fill="#f4f4f4">E</text>
    <text x="0" y="92" text-anchor="middle" font-family="Georgia, serif" font-size="32" fill="#f4f4f4">S</text>
    <text x="-73" y="10" text-anchor="middle" font-family="Georgia, serif" font-size="32" fill="#f4f4f4">W</text>
    <g>
      <path d="M0,-98 L18,-18 L0,-7 L-18,-18 Z" fill="url(#steel)"/>
      <path d="M98,0 L18,18 L7,0 L18,-18 Z" fill="url(#steel)"/>
      <path d="M0,98 L-18,18 L0,7 L18,18 Z" fill="#6f7780"/>
      <path d="M-98,0 L-18,-18 L-7,0 L-18,18 Z" fill="#6f7780"/>
      <path d="M70,-70 L16,-8 L9,-16 Z" fill="#f5f5f5"/>
      <path d="M-70,70 L-16,8 L-9,16 Z" fill="#7d858b"/>
    </g>
    <circle r="19" fill="url(#gold)" stroke="#1c1c1c" stroke-width="5"/>
    <circle r="7" fill="#7d4f17" opacity=".85"/>
  </g>
  <text x="450" y="385" text-anchor="middle" font-family="Georgia, 'Times New Roman', serif" font-size="96" font-weight="700" letter-spacing="2" fill="url(#steel)" stroke="#111" stroke-width="1.5">JAZEKKER</text>
  <path d="M198 413 H702 M370 421 H530 L450 456 Z" fill="none" stroke="url(#steel)" stroke-width="4" opacity=".92"/>
  <text x="450" y="487" text-anchor="middle" font-family="Inter, Arial, sans-serif" font-size="25" letter-spacing="4" fill="#d8c891">портал спокойной ориентации</text>
</svg>
